<svg width="48" height="48" viewBox="0 0 48 48" fill="none" xmlns="http://www.w3.org/2000/svg">
<g clip-path="url(#clip0_1_2)">
<path d="M43.125 2.625H4.875L8.25 40.875L24 45.375L39.75 40.875L43.125 2.625Z" fill="#0277BD"/>
<path d="M24 6V41.8875L36.6 38.2875L39.4125 6H24Z" fill="#039BE5"/>
<path d="M34.2375 11.625H24V16.125H29.5125L29.175 20.625H24V25.125H28.95L28.6125 30.1875L24 31.7625V36.4875L32.8875 33.5625L33.675 20.625L34.2375 11.625Z" fill="white"/>
<path d="M24 11.625V16.125H13.9875L13.65 11.625H24ZM18.825 20.625L19.05 25.125H24V20.625H18.825ZM19.275 27.375H14.775L15.1125 33.5625L24 36.4875V31.7625L19.3875 30.1875L19.275 27.375Z" fill="#EEEEEE"/>
</g>
<defs>
<clipPath id="clip0_1_2">
<rect width="48" height="48" fill="white"/>
</clipPath>
</defs>
</svg>
